<svg width="40" height="40" viewBox="0 0 40 40" fill="none" xmlns="http://www.w3.org/2000/svg">
<g clip-path="url(#clip0_1_2)">
<path fill-rule="evenodd" clip-rule="evenodd" d="M2.49967 7.39224C2 8.35414 2 9.61786 2 12.1453V28.5168C2 30.7915 2 31.9289 2.4497 32.7946C2.82866 33.5241 3.42349 34.1189 4.15301 34.4979C5.01872 34.9476 6.15606 34.9476 8.43074 34.9476H8.43077H30.6786C31.9423 34.9476 32.5048 34.6915 32.9858 34.4417C33.0848 34.3902 33.1834 34.3469 33.279 34.305C33.5751 34.1751 33.8423 34.0578 34.0014 33.7515C34.2513 33.2705 34.2513 32.6387 34.2513 31.3749V14.449C34.2513 11.9215 34.2513 10.6578 33.7516 9.6959C33.3305 8.88531 32.6696 8.22439 31.859 7.80333C30.8971 7.30366 29.6334 7.30366 27.1059 7.30366H20.938C19.8726 7.30366 18.8487 6.89081 18.0813 6.15183C17.3139 5.41285 16.29 5 15.2246 5H9.14531C6.61786 5 5.35414 5 4.39224 5.49967C3.58165 5.92073 2.92073 6.58165 2.49967 7.39224ZM7.7592 7.30363C7.12306 7.30363 6.60737 7.81932 6.60737 8.45546C6.60737 9.0916 7.12306 9.60729 7.7592 9.60729H12.3665C13.0027 9.60729 13.5184 9.0916 13.5184 8.45546C13.5184 7.81932 13.0027 7.30363 12.3665 7.30363H7.7592Z" fill="url(#paint0_linear_1_2)"/>
<mask id="mask0_1_2" style="mask-type:alpha" maskUnits="userSpaceOnUse" x="2" y="5" width="42" height="30">
<path d="M2 12.1453C2 9.61786 2 8.35414 2.49967 7.39224C2.92073 6.58165 3.58165 5.92073 4.39224 5.49967C5.35414 5 6.61786 5 9.14531 5H15.2246C16.29 5 17.3139 5.41285 18.0813 6.15183C18.8487 6.89081 19.8726 7.30366 20.938 7.30366H36.1059C38.6334 7.30366 39.8971 7.30366 40.859 7.80333C41.6696 8.22439 42.3305 8.88531 42.7516 9.6959C43.2513 10.6578 43.2513 11.9215 43.2513 14.449V31.3749C43.2513 32.6387 43.2513 33.2705 43.0014 33.7515C42.7909 34.1568 42.4604 34.4872 42.0551 34.6978C41.5742 34.9476 40.9423 34.9476 39.6786 34.9476H8.43077C6.15607 34.9476 5.01873 34.9476 4.15301 34.4979C3.42349 34.1189 2.82866 33.5241 2.4497 32.7946C2 31.9289 2 30.7915 2 28.5168V12.1453Z" fill="url(#paint1_linear_1_2)"/>
</mask>
<g mask="url(#mask0_1_2)">
<g filter="url(#filter0_b_1_2)">
<path d="M9.9119 17.5452C10.5412 15.3857 10.8559 14.3059 11.6844 13.6843C12.513 13.0628 13.6366 13.0628 15.8838 13.0628H31.2011C34.7403 13.0628 36.5099 13.0628 37.4423 14.212C38.3748 15.3612 38.0103 17.0929 37.2812 20.5561L35.29 30.0143C34.7924 32.3775 34.5437 33.5591 33.6881 34.2533C32.8325 34.9476 31.625 34.9476 29.2099 34.9476H4.30379C5.49534 33.6518 5.49534 32.3559 6.68688 28.4685C7.39031 26.1736 8.84121 21.2192 9.9119 17.5452Z" fill="#47D1FD"/>
<path d="M10.0559 17.5872C10.3716 16.504 10.6049 15.7041 10.8617 15.0964C11.1168 14.4923 11.3892 14.0933 11.7745 13.8043C12.1597 13.5153 12.6187 13.3655 13.2695 13.2895C13.9242 13.213 14.7566 13.2128 15.8838 13.2128H31.2011C32.9754 13.2128 34.2897 13.2132 35.2779 13.3549C36.2621 13.4961 36.8937 13.774 37.3258 14.3065C37.758 14.8391 37.8997 15.5144 37.8352 16.5066C37.7703 17.5028 37.4999 18.789 37.1344 20.5252L35.1432 29.9834C34.8936 31.1686 34.709 32.0443 34.4813 32.7112C34.255 33.3742 33.9913 33.8141 33.5936 34.1369C33.1958 34.4596 32.711 34.627 32.0156 34.7119C31.3161 34.7973 30.4212 34.7976 29.2099 34.7976H4.63103C5.10742 34.2059 5.37505 33.5842 5.63875 32.7239C5.76297 32.3186 5.88718 31.8574 6.03175 31.3206C6.06164 31.2096 6.09239 31.0954 6.1242 30.9778C6.31019 30.2901 6.53312 29.482 6.8303 28.5125C7.5341 26.2163 8.98532 21.2609 10.0559 17.5872Z" stroke="url(#paint2_linear_1_2)" stroke-width="0.3"/>
</g>
</g>
<circle cx="26" cy="25" r="8" fill="white"/>
</g>
<mask id="mask1_1_2" style="mask-type:luminance" maskUnits="userSpaceOnUse" x="20" y="19" width="10" height="12">
<path d="M29.617 24.5698L26.6137 27.5742L29.617 30.5786H26.1851L23.1807 27.5742L26.1851 24.5698H29.617ZM26.1851 19.4214L20.6071 24.9995L22.3235 26.7159L29.617 19.4214H26.1851Z" fill="white"/>
</mask>
<g mask="url(#mask1_1_2)">
<path d="M23.1818 27.5742L24.8972 29.2907L29.617 24.5698H26.1851L23.1818 27.5742Z" fill="#39CEFD"/>
</g>
<mask id="mask2_1_2" style="mask-type:luminance" maskUnits="userSpaceOnUse" x="20" y="19" width="10" height="12">
<path d="M29.617 24.5698L26.6137 27.5742L29.617 30.5786H26.1851L23.1807 27.5742L26.1851 24.5698H29.617ZM26.1851 19.4214L20.6071 24.9995L22.3235 26.7159L29.617 19.4214H26.1851Z" fill="white"/>
</mask>
<g mask="url(#mask2_1_2)">
<path d="M26.1851 19.4214H29.617L22.3235 26.7159L20.6071 24.9995L26.1851 19.4214Z" fill="#39CEFD"/>
</g>
<mask id="mask3_1_2" style="mask-type:luminance" maskUnits="userSpaceOnUse" x="20" y="19" width="10" height="12">
<path d="M29.617 24.5698L26.6137 27.5742L29.617 30.5786H26.1851L23.1807 27.5742L26.1851 24.5698H29.617ZM26.1851 19.4214L20.6071 24.9995L22.3235 26.7159L29.617 19.4214H26.1851Z" fill="white"/>
</mask>
<g mask="url(#mask3_1_2)">
<path d="M24.8972 29.2907L26.1851 30.5775H29.617L26.6137 27.5742L24.8972 29.2907Z" fill="#03569B"/>
</g>
<mask id="mask4_1_2" style="mask-type:luminance" maskUnits="userSpaceOnUse" x="20" y="19" width="10" height="12">
<path d="M29.617 24.5698L26.6137 27.5742L29.617 30.5786H26.1851L23.1807 27.5742L26.1851 24.5698H29.617ZM26.1851 19.4214L20.6071 24.9995L22.3235 26.7159L29.617 19.4214H26.1851Z" fill="white"/>
</mask>
<g mask="url(#mask4_1_2)">
<path d="M27.4429 28.4088L26.6137 27.5742L24.8972 29.2907L27.4429 28.4088Z" fill="url(#paint3_linear_1_2)"/>
</g>
<mask id="mask5_1_2" style="mask-type:luminance" maskUnits="userSpaceOnUse" x="20" y="19" width="10" height="12">
<path d="M29.617 24.5698L26.6137 27.5742L29.617 30.5786H26.1851L23.1807 27.5742L26.1851 24.5698H29.617ZM26.1851 19.4214L20.6071 24.9995L22.3235 26.7159L29.617 19.4214H26.1851Z" fill="white"/>
</mask>
<g mask="url(#mask5_1_2)">
<path d="M23.1816 27.5736L24.8981 25.8571L26.6148 27.5736L24.8981 29.2901L23.1816 27.5736Z" fill="#16B9FD"/>
</g>
<path d="M29.617 24.5698L26.6137 27.5742L29.617 30.5786H26.1851L23.1807 27.5742L26.1851 24.5698H29.617ZM26.1851 19.4214L20.6071 24.9995L22.3235 26.7159L29.617 19.4214H26.1851Z" fill="url(#paint4_radial_1_2)"/>
<defs>
<filter id="filter0_b_1_2" x="-8.81059" y="-0.0515919" width="59.925" height="48.1135" filterUnits="userSpaceOnUse" color-interpolation-filters="sRGB">
<feFlood flood-opacity="0" result="BackgroundImageFix"/>
<feGaussianBlur in="BackgroundImageFix" stdDeviation="6.55719"/>
<feComposite in2="SourceAlpha" operator="in" result="effect1_backgroundBlur_1_2"/>
<feBlend mode="normal" in="SourceGraphic" in2="effect1_backgroundBlur_1_2" result="shape"/>
</filter>
<linearGradient id="paint0_linear_1_2" x1="8.26355" y1="4.33124" x2="26.2105" y2="24.8774" gradientUnits="userSpaceOnUse">
<stop stop-color="#46D1FD"/>
<stop offset="1" stop-color="#21A4CE"/>
</linearGradient>
<linearGradient id="paint1_linear_1_2" x1="11.3032" y1="11.551" x2="35.6382" y2="20.5633" gradientUnits="userSpaceOnUse">
<stop stop-color="#7FC0FB"/>
<stop offset="1" stop-color="#2489B3"/>
</linearGradient>
<linearGradient id="paint2_linear_1_2" x1="8.57116" y1="11.5856" x2="16.0241" y2="39.6646" gradientUnits="userSpaceOnUse">
<stop stop-color="white"/>
<stop offset="0.765625" stop-color="white" stop-opacity="0"/>
</linearGradient>
<linearGradient id="paint3_linear_1_2" x1="25.3981" y1="29.6219" x2="26.6765" y2="28.3435" gradientUnits="userSpaceOnUse">
<stop stop-color="#1A237E" stop-opacity="0.4"/>
<stop offset="1" stop-color="#1A237E" stop-opacity="0"/>
</linearGradient>
<radialGradient id="paint4_radial_1_2" cx="0" cy="0" r="1" gradientUnits="userSpaceOnUse" gradientTransform="translate(20.8602 20.1819) scale(13.6494)">
<stop stop-color="white" stop-opacity="0.1"/>
<stop offset="1" stop-color="white" stop-opacity="0"/>
</radialGradient>
<clipPath id="clip0_1_2">
<rect width="36" height="36" fill="white" transform="translate(2 2)"/>
</clipPath>
</defs>
</svg>
